<svg width="457" height="457" viewBox="0 0 457 457" fill="none" xmlns="http://www.w3.org/2000/svg">
<path fill-rule="evenodd" clip-rule="evenodd" d="M456.2 228.1C456.2 354 354.1 456.1 228.1 456.1C102.2 456.1 0 354 0 228.1C0 102.1 102.2 0 228.1 0C354.1 0 456.2 102.1 456.2 228.1ZM229.2 23.7C230.9 24.6 236.8 28 239.5 29.7C244.167 32.5 248.767 35.4667 253.3 38.6C262.3 44.8 270.934 51.4334 279.2 58.5C293.4 70.7 306.5 84.1 318.3 98.6C320.167 97.1334 322 95.7 323.8 94.3C338.2 83.3 350.7 75.3 358.6 70.7C323.5 41.6 278.4 23.9 229.2 23.7ZM217.6 42.4C191.1 59.4 167.4 80.6 147.4 105C166 120.9 187.5 142.8 203.4 169.5C203.6 169.5 203.8 169.5 204 169.5H250.3C251.7 169.5 253.1 169.534 254.5 169.6C270.3 143.1 291.5 121.4 310 105.5C301.1 94.6 291.4 84.3 281.1 74.7C265.1 59.8 247.5 46.7 228.6 35.7C227.6 35.1 218.8 41.6 217.6 42.4ZM112.2 260.3C112.2 237.6 120.8 216.8 135.1 200.9C149.3 185.1 168.9 174.1 191.2 170.6C176.7 147.8 158.1 128.7 140.5 113.7C138.567 116.167 136.7 118.7 134.9 121.3C128.8 129.8 123.1 138.6 117.9 147.7C112.767 156.834 108.067 166.167 103.8 175.7C99.534 185.3 95.767 195.1 92.5 205.1C89.234 215.1 86.467 225.234 84.2 235.5C81.867 245.9 80.1 256.4 78.9 267C78.2 272.3 77.8 294.4 77.4 316.5H112.8L112.2 260.3ZM98.3 70.1C106.1 74.6 119.2 82.7 134.3 94.3C135.834 95.5 137.4 96.7334 139 98C140.6 96.0667 142.234 94.1667 143.9 92.3C151 84 158.5 76.2 166.3 68.7C174.2 61.3 182.5 54.3 191 47.8C199.534 41.2667 208.4 35.2 217.6 29.6C220.3 28 226.3 24.6 227.9 23.6C178.7 23.7 133.6 41.1 98.3 70.1ZM74.3 230.2C76.6 220.1 79.4 210 82.7 200.1C85.967 190.367 89.7 180.8 93.9 171.4C98.034 162.067 102.6 152.967 107.6 144.1C112.534 135.3 117.867 126.767 123.6 118.5C126.334 114.5 129.2 110.567 132.2 106.7C113.2 91.6 96.6 81.7 89.5 77.8C49 115.1 23.7 168.6 23.7 228C23.7 274.8 39.4 317.9 65.9 352.4V347.4C66 346.6 65.7 303.3 65.8 298.8C65.867 297.134 65.934 295.434 66 293.7C66.334 282.9 67.2 272.134 68.6 261.4C70 251 71.9 240.5 74.3 230.2ZM187.8 397.7C187.8 395.967 187.5 394.2 186.9 392.4C186.3 390.667 185.4 388.967 184.2 387.3C183 385.7 181.534 384.234 179.8 382.9C178 381.567 175.934 380.434 173.6 379.5L171.4 384.3C173.7 385.1 175.6 386.1 177.1 387.3C178.634 388.5 179.9 389.767 180.9 391.1C181.834 392.367 182.5 393.667 182.9 395C183.3 396.267 183.5 397.367 183.5 398.3C183.5 398.5 183.434 398.734 183.3 399C183.2 399.3 182.9 399.6 182.5 399.7C182.1 399.967 181.567 400.167 180.9 400.3C180.234 400.5 179.4 400.6 178.4 400.6H177.5C177.3 400.6 177 400.6 176.7 400.5C177.3 399.767 177.734 399 178 398.2C178.3 397.3 178.4 396.4 178.4 395.3C178.4 394.234 178.2 393.167 177.8 392.1C177.467 391.167 176.967 390.3 176.3 389.5C175.7 388.7 174.9 388.1 174 387.6C173.134 387.134 172.167 386.9 171.1 386.9C170.034 386.9 169.034 387.134 168.1 387.6C167.234 388.067 166.467 388.7 165.8 389.5C165.2 390.3 164.7 391.167 164.3 392.1C164 393.2 163.8 394.2 163.8 395.3C163.8 396.4 163.9 397.3 164.1 398.1C164.367 398.9 164.767 399.667 165.3 400.4C164.7 400.467 164.067 400.5 163.4 400.5H157.4L156.6 401V405.9L157.4 406.4H161.3C162.767 406.334 164.367 406.134 166.1 405.8C167.767 405.467 169.367 405.034 170.9 404.5C172.1 405.034 173.334 405.467 174.6 405.8C175.934 406.134 177.267 406.334 178.6 406.4C179.8 406.4 180.934 406.234 182 405.9C183.134 405.5 184.134 404.967 185 404.3C185.8 403.6 186.5 402.7 187 401.7C187.534 400.567 187.8 399.234 187.8 397.7ZM379.4 329.7H330.1V260.3C330.1 217.4 293.9 182.5 249.4 182.5H206.2C161.7 182.5 125.4 217.4 125.4 260.2L125.9 316.4L126 329.7H77.2C76.9 346 76.8 360.3 76.7 365.3C83.8 373.2 91.5 380.5 99.8 387.1V358.4H148.6V273C148.6 239.5 175.8 212.3 209.3 212.3H244.9C278.5 212.3 305.6 239.5 305.6 273V358.4H355V388.3C363.7 381.4 371.8 373.8 379.3 365.6V363.1C379.3 359.7 379.4 344.8 379.4 329.7ZM207.2 400.8C207.2 398.8 207.1 396.7 206.9 394.5C206.767 392.3 206.534 390.134 206.2 388C205.867 385.867 205.5 383.8 205.1 381.8C204.567 379.8 204.034 377.967 203.5 376.3L198 378C198.667 380.134 199.267 382.367 199.8 384.7C200.3 387 200.8 389.4 201.2 391.8C201.6 394.2 201.9 396.7 202.1 399.1C202.3 401.6 202.5 404 202.5 406.4H206.9C207.1 404.667 207.2 402.8 207.2 400.8ZM208.6 320C218.1 310 227.6 299.9 236.5 289.3C237.4 288.2 238.9 286.5 238 284.9C237.3 283.4 235.3 283.3 233.9 283.6C231 284.1 228.3 285.7 226.1 287.7C223.9 289.7 222.1 292.1 220.2 294.5C211 306.2 200.8 317.2 189.5 326.9C188.2 327.9 187 329 186.2 330.4C185.4 331.8 185.1 333.7 186 335C187.1 336.6 189.3 337 191.2 336.4C193 335.8 194.4 334.4 195.8 333.1C198.5 330.5 201.1 327.8 203.7 325C205.3 323.334 206.934 321.667 208.6 320ZM240 400.5C239 400.7 237.9 400.867 236.7 401C235.434 401.067 234.234 401.1 233.1 401.1C230.9 401.1 229.2 400.9 228.1 400.4C226.9 399.934 226.3 399.234 226.3 398.3C226.3 397 227 396 228.5 395.1C229.9 394.3 231.934 393.734 234.6 393.4L235.1 388.6C234.9 388.667 234.534 388.7 234 388.7C233.534 388.7 232.967 388.7 232.3 388.7C230.2 388.7 228.7 388.5 227.5 388.1C226.367 387.634 225.8 387.034 225.8 386.3C225.8 385.8 226 385.3 226.5 384.8C227 384.3 227.7 383.8 228.5 383.4C229.3 382.9 230.4 382.5 231.5 382.2C232.634 381.867 233.834 381.6 235.1 381.4L236.3 375.9C234.1 376.1 232.067 376.534 230.2 377.2C228.4 377.9 226.8 378.6 225.4 379.5C224 380.434 222.9 381.5 222.1 382.7C221.3 383.8 220.9 385 220.9 386.2C220.9 387.6 221.367 388.767 222.3 389.7C223.167 390.634 224.434 391.3 226.1 391.7C224.634 392.567 223.5 393.667 222.7 395C221.8 396.4 221.4 397.8 221.4 399.3C221.4 401.767 222.3 403.634 224.1 404.9C225.967 406.1 228.667 406.734 232.2 406.8C233.267 406.8 234.367 406.734 235.5 406.6C236.634 406.534 237.767 406.4 238.9 406.2L240 400.5ZM267.1 376.4C265.9 376.2 264.634 376.067 263.3 376C262.1 375.9 260.8 375.8 259.5 375.8C258.1 375.8 256.7 375.867 255.3 376C253.967 376.067 252.6 376.234 251.2 376.5L247.7 378.4C249.034 382.6 250.067 387.134 250.8 392C251.5 396.8 252 401.6 252.1 406.3H256.5C256.7 404.567 256.8 402.7 256.8 400.7C256.8 399.3 256.734 397.8 256.6 396.2C256.467 394.6 256.3 393 256.1 391.4C255.9 389.734 255.667 388.1 255.4 386.5C255.067 384.9 254.734 383.4 254.4 382C256.1 381.8 258 381.6 260.1 381.6C261.1 381.6 262.134 381.667 263.2 381.8C264.3 381.8 265.3 381.9 266.4 382L267.1 376.4ZM276.3 297.3C277.3 295.9 278.4 293.5 278.7 291.8C279.1 289.4 279.5 288.8 279.8 286.8C279.9 286.2 280.2 284.8 280.3 284.2C280.9 280.4 283.3 275 279 272.8C275.8 271.2 272.3 274.9 271.4 276.8C271.2 277.4 271.4 282.5 271.3 284.7C271.3 285.7 271.3 286.4 271.3 287.2C271.2 289 271 290.5 271.1 292.3C271.1 293.7 265.7 295.2 264.6 294.6C264.4 294.5 263.7 292.6 261.1 291.3C252.4 286.8 248.4 293.6 248.6 296.5C248.9 301.6 252.5 305 255.5 306.2C255.9 306.3 256.2 307.5 256.3 307.7C257.3 311.6 254.5 318.2 248.2 321.2C245.9 322.2 244.2 322.4 241.8 322.7C239.5 323.1 238 323.2 235.9 323.4C234.1 323.6 231.4 323.7 229.4 324.3C227.2 324.9 226.1 326.4 226.3 329C226.4 331.5 230.9 331.4 232.6 331.3C236.5 331.3 243.1 331.2 248.4 329C254.5 326.5 258.9 321.3 260.6 317.7C261.6 315.4 262.9 312 263.5 309.7C264.4 306.7 264.6 304.5 265.1 303.7C266 302.3 274.4 299.8 276.3 297.3ZM255.8 268.2C256.3 269.1 257.2 269.7 258.1 270.1C258.7 270.4 259.4 270.7 260.1 270.7C261.2 270.7 262.2 270.1 263 269.3C263.8 268.5 264.3 267.4 264.8 266.4C265.3 265.2 265.6 263.9 265.2 262.7C264.5 260.8 264.1 259.1 262.2 258.7C261 258.4 260.5 258.7 259.3 259.8C258.3 260.7 257.6 261.9 256.8 263.1C255.8 264.7 254.9 266.6 255.8 268.2ZM295.5 377.7L290.2 375.9C289.1 379.5 288.1 383.1 287.1 386.7C286.1 390.367 285.167 394.1 284.3 397.9C283.767 396.167 283.167 394.3 282.5 392.3C281.834 390.234 281.167 388.234 280.5 386.3C279.8 384.3 279.1 382.4 278.4 380.6C277.734 378.8 277.134 377.234 276.6 375.9L271.1 377.7C272.1 379.967 273.067 382.2 274 384.4C274.867 386.6 275.767 388.867 276.7 391.2C277.5 393.5 278.4 395.9 279.2 398.4C280.067 400.867 280.967 403.534 281.9 406.4H286.5C287.4 403.3 288.3 400.3 289.2 397.5C290.067 394.634 290.867 391.967 291.6 389.5C292.4 387 293.1 384.8 293.8 382.8C294.4 380.8 294.967 379.1 295.5 377.7ZM182 292C183.1 285.6 194 272 200.3 266.9C200.3 266.9 201.9 265.4 201.6 264.6C201.3 263.8 198.7 264.2 197.3 264.9C190.6 267.9 180.3 276.6 176.8 283C173.9 288.2 170.3 297.1 174.8 302.5C175.8 303.7 177.2 304.5 178.7 305.1C181.7 306.2 185.8 306.8 188.8 305.1C193.6 302.4 197.6 297.9 201.3 293.7C203.7 291 208 286.3 206.7 282.1C206.3 281 205.6 280.1 204.7 279.6C202.8 278.5 200.5 279.5 198.1 281.4C194.3 284.4 194 289.3 193.6 293.4C193.4 294.8 191.9 296.3 191 297.3C190.4 297.9 189.7 298.4 188.9 298.7C187.8 299.1 186.6 299.3 185.5 299C183.5 298.5 182.6 296.7 182.4 296.3C181.6 294.6 181.8 292.9 182 292ZM379.4 295C379 280 377.6 265 375.1 250.2C372.6 235.5 369.1 221.1 364.6 207C360.2 192.9 354.7 179.2 348.3 165.9C341.4 151.7 333.4 138 324.6 124.9C322.134 121.3 319.567 117.767 316.9 114.3C299.5 129.3 281 148.4 266.6 170.9C271.134 171.767 275.5 172.9 279.7 174.3C280.167 174.434 280.6 174.567 281 174.7C281.4 174.834 281.8 174.967 282.2 175.1C282.267 175.1 282.3 175.1 282.3 175.1C318 188.1 343.4 221.3 343.4 260.3V316.4H379.5C379.5 305.7 379.5 296.9 379.4 295ZM390.3 310.3C390.3 311.6 390.3 335.3 390.2 352.5C416.7 318 432.5 274.9 432.5 228C432.5 168.9 407.4 115.7 367.3 78.4C359.6 82.8 343.5 92.7 325.2 107.4C325.267 107.467 325.3 107.534 325.3 107.6C329.4 113 333.3 118.6 337 124.3C340.934 130.167 344.634 136.167 348.1 142.3C355.1 154.6 361.3 167.5 366.6 180.6C372 194 376.5 207.7 380.1 221.7C383.7 236 386.4 250.5 388.1 265.1C389.9 280.1 390.6 295.2 390.3 310.3Z" fill="#007580"/>
<path d="M171.099 392C169.599 392 168.399 393.5 168.399 395.3C168.399 397.1 169.599 398.6 171.099 398.6C172.599 398.6 173.699 397.1 173.699 395.3C173.699 393.5 172.599 392 171.099 392Z" fill="#007580"/>
</svg>
